<?xml version="1.0" standalone="no"?><!DOCTYPE svg PUBLIC "-//W3C//DTD SVG 1.1//EN" "http://www.w3.org/Graphics/SVG/1.1/DTD/svg11.dtd"><svg t="1604370865044" class="icon" viewBox="0 0 1024 1024" version="1.1" xmlns="http://www.w3.org/2000/svg" p-id="5178" xmlns:xlink="http://www.w3.org/1999/xlink" width="200" height="200"><defs><style type="text/css"></style></defs><path d="M884.376521 260.214487 788.962427 260.214487c13.252839-26.500561 18.553565-58.30901 15.905248-87.461981-2.65241-37.103036-15.905248-68.909439-39.759539-87.465051-15.900132-13.247722-39.754423-21.199835-66.256006-21.199835-50.355875 0-106.016569 26.500561-148.419308 71.561849-18.553565 18.547425-29.15297 37.103036-39.759539 53.002145-10.599406-18.547425-23.849174-37.10099-39.755446-53.002145-45.054125-45.060265-100.710726-71.561849-148.418284-71.561849-26.501584 0-47.707558 7.952112-66.261123 21.199835-23.854291 18.555611-37.102013 50.362015-39.755446 87.465051-2.647293 29.151947 2.653433 58.306964 15.901155 87.461981l-95.41 0c-50.355875 0-92.76373 42.407855-92.76373 95.41614l0 42.402739c0 47.707558 37.106106 90.115414 82.162278 95.415117l0 307.443138c0 87.460957 68.909439 159.018713 156.372443 159.018713l458.513832 0c84.810594 0 156.37142-71.558779 156.37142-159.018713L897.630383 490.795049c47.703465-5.300726 82.158185-45.054125 82.158185-95.41l0-42.407855C979.788567 302.623365 937.384805 260.214487 884.376521 260.214487L884.376521 260.214487 884.376521 260.214487zM595.488994 180.705642c37.102013-39.757492 79.508845-53.008284 106.011452-53.008284 10.604522 0 21.205974 2.65241 26.505677 7.952112 5.300726 5.298679 13.252839 18.547425 15.900132 39.753399 0 13.248745 0 50.357921-26.500561 82.162278l-166.972872 0C558.380842 228.4132 574.281997 201.905476 595.488994 180.705642L595.488994 180.705642 595.488994 180.705642zM277.443381 175.402869c0-21.205974 7.949043-34.45472 15.901155-39.753399 5.300726-5.300726 15.902178-7.952112 26.502607-7.952112 26.5067 0 66.261123 13.250792 106.016569 53.008284 21.200858 21.199835 37.106106 47.707558 45.054125 76.859505L303.945989 257.565147C280.090675 225.76079 277.443381 191.30607 277.443381 175.402869L277.443381 175.402869 277.443381 175.402869zM105.166713 398.033365l0-42.402739c0-18.554588 13.252839-31.807427 31.807427-31.807427L478.86995 323.8232l0 106.016569L136.97414 429.839769C118.420575 429.839769 105.166713 413.938614 105.166713 398.033365L105.166713 398.033365 105.166713 398.033365zM187.328991 800.892643 187.328991 493.448482 478.86995 493.448482l0 392.253732c0 2.650363 0 7.952112 2.648316 10.600429L282.745131 896.302643C229.736846 896.303666 187.328991 851.247494 187.328991 800.892643L187.328991 800.892643 187.328991 800.892643zM834.021669 800.892643c0 53.006238-42.406832 95.411023-92.762707 95.411023L542.479687 896.303666c0-2.648316 2.648316-7.951089 2.648316-10.600429l0-392.253732L836.668962 493.449505l0 307.443138L834.021669 800.892643 834.021669 800.892643zM916.179854 398.033365c0 18.553565-13.248745 31.806403-31.803333 31.806403l-341.896834 0L542.479687 323.8232l341.896834 0c15.901155 0 31.803333 13.252839 31.803333 31.807427L916.179854 398.033365 916.179854 398.033365 916.179854 398.033365zM916.179854 398.033365" p-id="5179" fill="#ffffff"></path></svg>