<?xml version="1.0" standalone="no"?><!DOCTYPE svg PUBLIC "-//W3C//DTD SVG 1.1//EN" "http://www.w3.org/Graphics/SVG/1.1/DTD/svg11.dtd"><svg t="1604394542536" class="icon" viewBox="0 0 1280 1024" version="1.1" xmlns="http://www.w3.org/2000/svg" p-id="4013" xmlns:xlink="http://www.w3.org/1999/xlink" width="250" height="200"><defs><style type="text/css"></style></defs><path d="M939.31 363.3l-22.62-22.62c-12.5-12.5-32.76-12.5-45.26 0L768.01 444.12l-103.44-103.44c-12.5-12.5-32.76-12.5-45.26 0l-22.62 22.62c-12.5 12.5-12.5 32.76 0 45.26L700.13 512l-103.44 103.44c-12.5 12.5-12.5 32.76 0 45.26l22.62 22.62c12.5 12.5 32.76 12.5 45.26 0L768.01 579.88l103.44 103.44c12.5 12.5 32.76 12.5 45.26 0l22.62-22.62c12.5-12.5 12.5-32.76 0-45.26L835.89 512l103.44-103.44c12.48-12.5 12.48-32.76-0.02-45.26zM1152.01 128H410.53C376.57 128 344.01 141.48 320.01 165.48L18.75 466.74c-25 25-25 65.52 0 90.5L320.01 858.5c24 24 56.56 37.5 90.5 37.5H1152.01c70.7 0 128-57.3 128-128V256c0-70.7-57.3-128-128-128z m32 640c0 17.64-14.36 32-32 32H410.53c-8.54 0-16.58-3.32-22.62-9.38L109.27 512l278.62-278.62c6.04-6.04 14.08-9.38 22.62-9.38H1152.01c17.64 0 32 14.36 32 32v512z" p-id="4014"></path></svg>