<?xml version="1.0" standalone="no"?><!DOCTYPE svg PUBLIC "-//W3C//DTD SVG 1.1//EN" "http://www.w3.org/Graphics/SVG/1.1/DTD/svg11.dtd"><svg t="1605405607548" class="icon" viewBox="0 0 1117 1024" version="1.1" xmlns="http://www.w3.org/2000/svg" p-id="7144" xmlns:xlink="http://www.w3.org/1999/xlink" width="218.1640625" height="200"><defs><style type="text/css"></style></defs><path d="M587.217455 541.789091l474.484363-357.934546a21.969455 21.969455 0 0 0 8.843637-17.687272V57.716364c0-9.402182-11.170909-14.615273-18.804364-8.843637L558.545455 421.050182 65.349818 48.965818C57.716364 43.194182 46.545455 48.407273 46.545455 57.716364v108.357818a22.341818 22.341818 0 0 0 8.843636 17.687273l474.391273 357.841454a47.941818 47.941818 0 0 0 57.437091 0z m0 426.077091l474.484363-357.841455a21.969455 21.969455 0 0 0 8.843637-17.687272V483.979636c0-9.402182-11.170909-14.615273-18.804364-8.843636L558.545455 847.127273 65.349818 475.136C57.716364 469.364364 46.545455 474.577455 46.545455 483.979636v108.357819a22.341818 22.341818 0 0 0 8.843636 17.687272l474.391273 357.841455a47.941818 47.941818 0 0 0 57.437091 0z" p-id="7145"></path></svg>