<?xml version="1.0" standalone="no"?><!DOCTYPE svg PUBLIC "-//W3C//DTD SVG 1.1//EN" "http://www.w3.org/Graphics/SVG/1.1/DTD/svg11.dtd"><svg t="1604393725003" class="icon" viewBox="0 0 1024 1024" version="1.1" xmlns="http://www.w3.org/2000/svg" p-id="5514" xmlns:xlink="http://www.w3.org/1999/xlink" width="200" height="200"><defs><style type="text/css"></style></defs><path d="M911.1 98.2c-27.6 0-49.9 22.4-49.9 49.9v277.8c0 53.3-43.4 96.7-96.7 96.7H234.6l147.9-147.9c19.5-19.5 19.5-51.1 0-70.6-19.5-19.5-51.1-19.5-70.6 0L75.6 540.4c-9.4 9.4-14.6 22.1-14.6 35.3 0 13.2 5.3 25.9 14.6 35.3l236.2 236.2c9.8 9.8 22.5 14.6 35.3 14.6 12.8 0 25.6-4.9 35.3-14.6 19.5-19.5 19.5-51.1 0-70.6l-154-154.1h536c108.4 0 196.6-88.2 196.6-196.6V148.1c0-27.5-22.4-49.9-49.9-49.9z" p-id="5515"></path></svg>