<?xml version="1.0" standalone="no"?><!DOCTYPE svg PUBLIC "-//W3C//DTD SVG 1.1//EN" "http://www.w3.org/Graphics/SVG/1.1/DTD/svg11.dtd"><svg t="1603945347223" class="icon" viewBox="0 0 1024 1024" version="1.1" xmlns="http://www.w3.org/2000/svg" p-id="9345" xmlns:xlink="http://www.w3.org/1999/xlink" width="200" height="200"><defs><style type="text/css"></style></defs><path d="M897.950166 65.11502l-81.252559 0c-112.199385 0-203.13242 90.933035-203.13242 203.12935l0 284.380886c0 67.287499 54.552453 121.877815 121.877815 121.877815l68.100004 0c0 0 6.54609 0 10.156314 0 16.822131 0 30.468942-16.648169 30.468942-33.468253 0-16.821107-13.646811-32.470529-30.468942-32.470529-3.610224 0-10.156314 0-10.156314 0l-62.783928 0c-44.870953 0-66.254983-31.381731-66.254983-76.252685L674.504094 288.555975c0-89.741907 49.621141-157.505243 152.505369-157.505243l30.311353 0c11.227716 0 20.312628 4.086062 20.312628 15.314801l0 800.279682c0.064468 0.171915 0.109494 0.364297 0.109494 0.600681 0 6.426363 5.211698 11.638061 11.638061 11.638061l39.036062 0c5.593392 0 10.156314-4.561899 10.156314-10.155291L938.573375 105.740276c0.001023-22.415522-18.209734-40.625256-40.624233-40.625256L897.950166 65.11502zM440.906825 65.11502c-27.355021 0-51.616588 12.259208-68.378343 31.302937-14.878872-18.924002-37.730323-31.302937-63.657832-31.302937-25.927509 0-48.777937 12.377912-63.656809 31.302937-16.761756-19.043728-41.023322-31.302937-68.378343-31.302937-46.994314 0-86.270852 35.627429-91.407849 81.251535l0 233.599316c0 81.45108 50.52472 150.9612 121.879861 179.287339l0 359.006514c0 22.415522 18.188244 40.625256 40.624233 40.625256l121.879861 0c22.435988 0 40.624233-18.210757 40.624233-40.625256l0-359.006514c71.355141-28.326139 121.879861-97.836259 121.879861-179.287339L532.315698 146.366555c-5.118578-45.624107-44.413536-81.251535-91.406826-81.251535L440.906825 65.11502zM471.373721 369.81058c0 71.609944-52.984748 130.685411-121.879861 140.564409l0 367.258455c0 11.226692-9.063423 20.312628-20.311605 20.312628l-40.624233 0c-11.247158 0-20.312628-9.084912-20.312628-20.312628L268.245394 510.37499c-68.893067-9.878998-121.877815-68.954465-121.877815-140.564409L146.367579 146.368602c0 0 8.074909-20.312628 40.624233-20.312628 30.879288 0 40.628326 20.312628 40.628326 20.312628l0 192.972013c0 5.594415 4.583388 10.156314 10.155291 10.156314l20.312628 0c5.614881 0 10.156314-4.561899 10.156314-10.156314L268.24437 146.367579c0 0 8.964162-20.312628 40.624233-20.312628 29.04143 0 40.625256 20.312628 40.625256 20.312628l0 192.972013c0 5.594415 4.582365 10.156314 10.157337 10.156314l20.311605 0c5.613858 0 10.155291-4.561899 10.155291-10.156314L390.118092 146.367579c0 0 4.39817-20.312628 40.629349-20.312628 29.245068 0 40.624233 20.312628 40.624233 20.312628L471.373721 369.81058z" p-id="9346" fill="#ffffff"></path></svg>