<?xml version="1.0" standalone="no"?><!DOCTYPE svg PUBLIC "-//W3C//DTD SVG 1.1//EN" "http://www.w3.org/Graphics/SVG/1.1/DTD/svg11.dtd"><svg t="1603938028873" class="icon" viewBox="0 0 1024 1024" version="1.1" xmlns="http://www.w3.org/2000/svg" p-id="16181" xmlns:xlink="http://www.w3.org/1999/xlink" width="200" height="200"><defs><style type="text/css"></style></defs><path d="M860.52 294.89l-334.78-193.2c-8.47-4.92-19-4.92-27.47 0l-334.78 193.2c-8.47 4.92-13.73 13.96-13.73 23.81v386.52c0 9.84 5.27 18.89 13.73 23.81l334.78 193.32c4.24 2.4 9.04 3.66 13.73 3.66 4.69 0 9.5-1.26 13.73-3.66l334.78-193.32c8.47-4.92 13.73-13.96 13.73-23.81V318.7c0.01-9.84-5.25-18.89-13.72-23.81z m-41.21 394.53L512 866.83 204.69 689.42V334.61L512 157.2l307.31 177.41v354.81z" p-id="16182" fill="#ffffff"></path><path d="M282.98 389.66c-7.56 13.16-3.09 29.99 10.07 37.54l191.14 110.34V755.8c0 15.22 12.25 27.47 27.47 27.47 15.22 0 27.47-12.25 27.47-27.47V537.88l191.83-110.79c13.16-7.55 17.63-24.38 10.07-37.54-7.55-13.16-24.38-17.63-37.54-10.07L512 490.04 320.52 379.47c-13.16-7.55-29.88-2.97-37.54 10.19z" p-id="16183" fill="#ffffff"></path></svg>