<?xml version="1.0" standalone="no"?><!DOCTYPE svg PUBLIC "-//W3C//DTD SVG 1.1//EN" "http://www.w3.org/Graphics/SVG/1.1/DTD/svg11.dtd"><svg t="1604386006442" class="icon" viewBox="0 0 1024 1024" version="1.1" xmlns="http://www.w3.org/2000/svg" p-id="10573" xmlns:xlink="http://www.w3.org/1999/xlink" width="200" height="200"><defs><style type="text/css"></style></defs><path d="M120.06 371.55c0 80.38 141.95 131.92 324.04 138.99-28.21 28.76-49.73 61.88-63.11 98.62-150.54-19.42-260.93-78.66-260.93-149.43v-88.18z m0 156.78c0 68.78 104.06 116.41 247.92 133.28-1.44 11.07-3.89 21.95-3.89 33.3 0 24.41 4.61 47.72 11.3 70.31-147.64-20.14-255.33-78.75-255.33-148.7v-88.19z m365.99 401.74c-148.18 0-275.94-37.83-333.43-92.08-20.98-19.69-32.55-41.56-32.55-64.68v-88.19c0 73.84 119.44 123.47 279.92 136.63 3.16 5.45 6.61 10.98 10.12 16.24 24.14 36.11 56.69 67.32 96.2 91.27-6.78 0.08-13.3 0.81-20.26 0.81z m0-470.33c-202.07 0-365.99-70.13-365.99-156.77v-52.26c0-86.55 163.92-156.77 365.99-156.77 202.17 0 365.99 70.22 365.99 156.77v52.26c0 42.28-39.51 80.57-103.07 108.69-16.27-1.99-32.46-4.17-49.36-4.17-70.98 0-136.52 19.05-190.68 51.18-7.78 0.35-15.1 1.07-22.88 1.07z m417.89 279.44H533.61v-74.39h370.32v74.39z m0 0" p-id="10574"></path></svg>