<?xml version="1.0" standalone="no"?><!DOCTYPE svg PUBLIC "-//W3C//DTD SVG 1.1//EN" "http://www.w3.org/Graphics/SVG/1.1/DTD/svg11.dtd"><svg t="1603938024826" class="icon" viewBox="0 0 1024 1024" version="1.1" xmlns="http://www.w3.org/2000/svg" p-id="16002" xmlns:xlink="http://www.w3.org/1999/xlink" width="200" height="200"><defs><style type="text/css"></style></defs><path d="M614.4 989.86666667c-18.88 0-34.13333333-15.25333333-34.13333332-34.13333334L580.26666668 648.53333333 443.73333332 648.53333333l0 307.2c0 18.88-15.25333333 34.13333333-34.13333332 34.13333334s-34.13333333-15.25333333-34.13333333-34.13333334L375.46666667 614.4c0-18.88 15.25333333-34.13333333 34.13333333-34.13333333l204.8 0c18.88 0 34.13333333 15.25333333 34.13333333 34.13333333l0 341.33333333c0 18.88-15.25333333 34.13333333-34.13333333 34.13333334z" p-id="16003" fill="#ffffff"></path><path d="M887.46666667 989.86666667L614.4 989.86666667c-18.88 0-34.13333333-15.25333333-34.13333332-34.13333334s15.25333333-34.13333333 34.13333332-34.13333333l238.93333333 0L853.33333333 546.13333333c0-18.88 15.25333333-34.13333333 34.13333334-34.13333333l40 0c21.12 0 29.44-16.10666667 31.57333333-21.12s7.57333333-22.29333333-7.36-37.22666667L630.29333333 132.37333333C611.19999999 113.38666667 584.85333333 102.40000001 557.86666667 102.4l-91.73333334 0c-26.98666666 0-53.33333334 10.98666667-72.42666666 29.97333333L72.42666667 453.76c-14.93333333 14.93333333-9.49333333 32.32-7.36 37.22666667s10.45333332 21.12 31.57333333 21.12L136.53333333 512.10666667c18.88 0 34.13333333 15.25333333 34.13333334 34.13333333l0 375.46666667 238.93333333 0c18.88 0 34.13333333 15.25333333 34.13333333 34.13333333s-15.25333333 34.13333333-34.13333333 34.13333333L136.53333333 989.97333333c-18.88 0-34.13333333-15.25333333-34.13333333-34.13333333L102.4 580.26666668l-5.86666667-1e-8c-42.24 0-78.50666667-24.21333333-94.61333333-63.25333334s-7.68-81.70666667 22.18666667-111.57333333l321.38666666-321.38666666C377.70666667 51.83999999 420.58666667 34.13333333 466.13333333 34.13333333l91.73333334 0c45.65333333 0 88.42666667 17.70666666 120.64 50.02666667l321.38666666 321.38666667c29.86666667 29.86666667 38.29333333 72.64 22.18666667 111.57333333S969.70666667 580.26666667 927.46666667 580.26666667L921.6 580.26666668l0 375.46666665c0 18.88-15.25333333 34.13333333-34.13333333 34.13333334z" p-id="16004" fill="#ffffff"></path></svg>