<?xml version="1.0" standalone="no"?><!DOCTYPE svg PUBLIC "-//W3C//DTD SVG 1.1//EN" "http://www.w3.org/Graphics/SVG/1.1/DTD/svg11.dtd"><svg t="1603945364380" class="icon" viewBox="0 0 1163 1024" version="1.1" xmlns="http://www.w3.org/2000/svg" p-id="9837" xmlns:xlink="http://www.w3.org/1999/xlink" width="227.1484375" height="200"><defs><style type="text/css"></style></defs><path d="M1066.681697 725.317954A42.682162 42.682162 0 0 0 1023.999535 768.000116v85.31778c0 47.80216-34.536712 85.364325-75.077785 85.364325h-56.506156a42.682162 42.682162 0 0 0-42.356344 37.701801l-0.279273 4.933816a42.682162 42.682162 0 0 1-32.907621 41.565072l-4.79418 0.837817-4.980361 0.279273h141.823935c89.367232 0 160.395563-77.265419 160.395564-170.682104V768.000116a42.682162 42.682162 0 0 0-42.635617-42.682162zM421.56199 0.000465l-5.585452 0.186182c-3.723635 0.232727-7.447269 0.744727-11.170904 1.489454l-6.190542 1.442908A85.317779 85.317779 0 0 0 337.919846 102.074601L355.746747 256.000349H254.417339L198.749001 180.224384l-5.399271-6.842179a127.999942 127.999942 0 0 0-97.74541-45.381798h-10.239995l-6.330179 0.279273a72.331603 72.331603 0 0 0-12.101813 2.234181 163.839926 163.839926 0 0 0-9.309086 2.885817l-8.703997 2.559998C18.431992 146.478944 8.378178 172.684023 5.585452 207.77928a220.439173 220.439173 0 0 0-0.418909 6.050906l-0.325818 12.939631v114.175948l0.279273 10.333086c2.885817 57.716337 30.487259 103.191226 80.61669 131.49085a42.682162 42.682162 0 1 0 41.983981-74.286512l-5.725088-3.490908c-21.876354-14.335993-31.837076-34.210894-31.837077-64.046516V228.073089l0.139637-7.54036 0.465454-7.167997h4.840725l5.026907 0.325818c11.636358 1.396363 22.341808 7.54036 29.323623 17.082174L198.423183 323.956682l3.25818 3.909816c7.959269 8.56436 19.223264 13.498176 31.138895 13.498176h170.82174l5.026907-0.279273a42.682162 42.682162 0 0 0 37.375983-47.336705l-23.924353-204.939544-0.558545-3.444362h70.283605l5.585452 0.372364a42.682162 42.682162 0 0 1 31.045804 20.340354l2.606544 3.863271 162.862471 214.574448 3.258181 3.77018c7.959269 8.331633 19.083628 13.079267 30.719986 13.079267h238.917709l6.376725 0.232727A85.317779 85.317779 0 0 1 966.841742 512.000233h-440.785254a184.319916 184.319916 0 0 0-135.447211 59.903972l-6.981815 7.912724-81.314872 102.818863h-146.152661C69.119969 682.682337 0 757.899757 0 848.709898v9.309087C0 948.829125 69.166514 1024 156.113384 1024H295.098048l-4.980362-0.279273a42.682162 42.682162 0 0 1-37.375983-37.422528l-0.325818-4.980361a42.682162 42.682162 0 0 0-37.701801-42.356345l-4.933816-0.279272H156.113384c-38.167255 0-70.749059-35.514166-70.749059-80.663236v-9.355633c0-45.14907 32.581803-80.663236 70.749059-80.663236h166.493015a42.635617 42.635617 0 0 0 30.254532-12.194903l3.537452-4.002907 93.509776-118.225401a99.3745 99.3745 0 0 1 68.235605-35.933075l7.912724-0.325818h440.785254l8.517815-0.186182a170.682104 170.682104 0 0 0 162.16429-170.449377l-0.186182-8.517814A170.682104 170.682104 0 0 0 966.841742 256.000349h-217.739537l-149.224659-196.561365-2.792726-4.328725A127.999942 127.999942 0 0 0 491.89214 0.000465h-70.283604z m-41.146163 938.681756a42.682162 42.682162 0 0 0-42.356344 37.701801l-0.279273 4.933816a42.682162 42.682162 0 0 1-32.907621 41.565072l-4.79418 0.837817L295.098048 1024h511.999767l-4.980361-0.279273a42.682162 42.682162 0 0 1-37.375983-37.422528l-0.325818-4.980361a42.682162 42.682162 0 0 0-37.701802-42.356345l-4.933815-0.279272H380.415827z" p-id="9838" fill="#ffffff"></path></svg>