<?xml version="1.0" standalone="no"?><!DOCTYPE svg PUBLIC "-//W3C//DTD SVG 1.1//EN" "http://www.w3.org/Graphics/SVG/1.1/DTD/svg11.dtd"><svg t="1604539642219" class="icon" viewBox="0 0 1024 1024" version="1.1" xmlns="http://www.w3.org/2000/svg" p-id="3799" xmlns:xlink="http://www.w3.org/1999/xlink" width="200" height="200"><defs><style type="text/css"></style></defs><path d="M345.97546667 297.06908445c-11.06830222-85.63370667-12.23338667-164.85944889-0.58254222-235.9296 154.95623111-105.44014222 228.35655111 18.64135111 346.61262222 0 9.32067555 73.98286222 5.82542222 173.59758222-5.24288 232.43434667-6.99050667 39.03032889-23.30168889 73.98286222-46.02083556 101.94488888-32.03982222 39.03032889-75.73048889 63.49710222-124.66403556 63.49710222-48.93354667 0-93.20675555-24.46677333-124.66403555-63.49710222-22.13660445-26.79694222-37.86524445-60.58439111-45.43829333-98.44963555z m-78.06065778 669.92355555h511.47207111l-30.29219555 44.2732089H292.96412445l-25.04931556-44.2732089z m538.85155556-380.98261333l56.50659555 214.37553778c19.80643555 75.14794667 10.48576 128.74183111-76.31303111 128.74183111h-19.22389334V634.36103113H538.2144l65.82727111-151.46097778 23.88423111-18.64135112 129.32437333 32.03982222 6.40796445 1.74762667 4.07779555 5.24288c19.22389333 25.04931555 31.45728 53.01134222 37.86524445 83.30353778l1.16508445-0.58254223zM283.06090667 929.12739556h-34.95253334c-86.21624889 0-95.53692445-53.59388445-76.31303111-128.7418311l56.50659556-214.37553779c7.57304889-35.53507555 23.88423111-63.49710222 47.18592-85.05116445l3.49525333-2.9127111 4.66033778-1.16508445 124.66403556-32.03982222 24.46677333 18.64135112 71.65269333 151.46097777h-221.36604444v294.18382222z" p-id="3800"></path></svg>